<?xml version="1.0" encoding="UTF-8"?><svg id="b" xmlns="http://www.w3.org/2000/svg" width="32" height="32" viewBox="0 0 32 32"><defs><style>.e{fill:#0f0f19;}.e,.f{stroke-width:0px;}.f{fill:#aae813;}</style></defs><g id="c"><g id="d"><path class="f" d="m18.3377,0h-4.6755C2.5172,0,0,2.5172,0,13.6617v4.6758c0,11.1449,2.5172,13.6621,13.6623,13.6621h2.3379v.0004h2.3375c11.145,0,13.6623-2.5172,13.6623-13.6625v-4.6754c0-11.1449-2.5172-13.6621-13.6623-13.6621Z"/><path class="e" d="m10.472,17.6688v.4736c0,.6377.1797,1.1904.8389,1.1904.5605,0,.7998-.3408.7998-1.0303,0-.668-.1895-1.1309-1.4434-1.9395-1.4229-.915-2.1094-1.666-2.1094-3.1465,0-1.751.9404-2.8213,2.7432-2.8213,1.957,0,2.7344,1.0801,2.7344,2.9775v.4141h-1.9902v-.6387c0-.7207-.2422-1.0156-.7314-1.0156-.5078,0-.71.3682-.71.916,0,.5801.1943.8438,1.1367,1.4453,1.8115,1.1523,2.4502,1.8857,2.4502,3.5811,0,1.9824-.9941,2.9951-2.9395,2.9951-2.3271,0-2.8604-1.4619-2.8604-2.9414v-.46h2.0811Z"/><path class="e" d="m17.4642,20.1815v4.1992h-2.0615v-10.8535c0-1.3984,0-2.3467-.0195-2.9717h1.9678c.0381.1875.0752.6504.0752,1.0195.3057-.665.8789-1.1797,1.9043-1.1797,1.4453,0,2.1406,1.0186,2.1406,3.0371v4.2422c0,2.3848-.7842,3.3955-2.3623,3.3955-.8936,0-1.3789-.4268-1.6445-.8887Zm1.9434-2.4844v-4.0811c0-.9414-.3008-1.373-.8975-1.373-.6699,0-1.0488.4141-1.0488,1.6104v3.5889c0,1.0557.1934,1.7803.9668,1.7803.7666,0,.9795-.5889.9795-1.5254Z"/><path class="e" d="m22.7073,20.9101v-2.9629h2.0605v2.9629h-2.0605Z"/></g></g></svg>